# xmcd
#
# Track frame offsets: 
#        150
#        17397
#        36154
#        55177
#        75292
#        93267
#        109442
#        126545
#        142193
#        158873
#        173647
#        193199
#
# Disc length: 2705 seconds
#
# Revision: 0
# Processed by: cddbd v1.5.2PL0 Copyright (c) Steve Scherf et al.
# Submitted via: ExactAudioCopy v1.3
#
DISCID=9d0a8f0c
DTITLE=Moondog Howlers - Misbehavin'
DYEAR=2019
DGENRE=Blues Rock
TTITLE0=Don't Laugh At Love
TTITLE1=Good Ol' Days
TTITLE2=Can't Get Ya Outta My Head
TTITLE3=Over My Shoulder
TTITLE4=Need Your Love
TTITLE5=Bad Side On The Prowl
TTITLE6=That's Alright
TTITLE7=Read Me Like A Book
TTITLE8='a' Boogie
TTITLE9=What's Goin' On
TTITLE10=Shine Down On Me
TTITLE11=Woman
EXTD=
EXTT0=
EXTT1=
EXTT2=
EXTT3=
EXTT4=
EXTT5=
EXTT6=
EXTT7=
EXTT8=
EXTT9=
EXTT10=
EXTT11=
PLAYORDER=
